<svg width="36" height="36" fill="none" xmlns="http://www.w3.org/2000/svg"><path d="M18.01 3c2.427 0 4.844.599 6.992 1.731 7.313 3.859 10.125 12.947 6.27 20.263C28.641 29.982 23.462 33 17.992 33a14.88 14.88 0 01-3.222-.353 1.125 1.125 0 01-.853-1.34 1.125 1.125 0 011.34-.853c5.587 1.242 11.354-1.44 14.027-6.508 3.278-6.219.887-13.948-5.33-17.228a12.786 12.786 0 00-5.946-1.472c-7.044 0-12.763 5.72-12.763 12.752a12.744 12.744 0 001.443 5.899l.288.563c.353.66.431 1.481.203 2.224a25.674 25.674 0 00-.796 2.448c.843-.254 1.872-.627 2.616-.898l.305-.11a1.123 1.123 0 01.764 2.112l-.302.11c-1.112.402-2.634.956-3.661 1.186-.088.018-.181.03-.267.028-.69 0-1.11-.28-1.341-.514-.355-.361-.524-.867-.505-1.504a1.15 1.15 0 01.03-.22 26.183 26.183 0 011.034-3.37.704.704 0 00-.074-.463l-.29-.562A15.01 15.01 0 013 17.997C3 9.727 9.726 3 17.993 3h.017zm-.017 13.214c.985 0 1.784.801 1.784 1.784s-.8 1.784-1.784 1.784a1.785 1.785 0 01.001-3.568zm6.605 0c.984 0 1.784.801 1.784 1.784s-.8 1.784-1.784 1.784a1.785 1.785 0 010-3.568zm-13.21 0a1.784 1.784 0 11-1.783 1.784c0-.984.8-1.783 1.784-1.783z" fill="#446DF6"/></svg>