<svg width="36" height="36" fill="none" xmlns="http://www.w3.org/2000/svg"><path d="M23.78 3c4.82 0 7.707 2.927 7.72 7.815v14.37c0 4.888-2.874 7.815-7.707 7.815H19.51a1.094 1.094 0 01-.966-1.093c0-.56.416-1.031.966-1.092h4.271c3.684 0 5.539-1.895 5.539-5.63v-14.37c0-3.736-1.855-5.63-5.539-5.63H12.207c-3.684 0-5.552 1.894-5.552 5.63v14.37c0 3.736 1.868 5.63 5.552 5.63.55.061.965.532.965 1.092s-.416 1.032-.965 1.093C7.387 33 4.5 30.073 4.5 25.185v-14.37C4.5 5.914 7.387 3 12.207 3H23.78zm-.392 20.265c.592 0 1.071.486 1.071 1.086 0 .6-.48 1.086-1.07 1.086H12.572a1.079 1.079 0 01-1.072-1.086c0-.6.48-1.086 1.072-1.086h10.815zm0-6.358a1.08 1.08 0 011.037.509c.221.357.221.81 0 1.168a1.08 1.08 0 01-1.037.509H12.573A1.094 1.094 0 0111.607 18c0-.56.416-1.031.966-1.093h10.815zM16.7 10.563c.55.061.966.532.966 1.093 0 .56-.416 1.03-.966 1.092h-4.114a1.094 1.094 0 01-.966-1.092c0-.56.416-1.032.966-1.093H16.7z" fill="#446DF6"/></svg>