<svg width="36" height="36" fill="none" xmlns="http://www.w3.org/2000/svg"><path d="M27.639 20.991c.402 0 .804.045 1.197.133a1.24 1.24 0 01.949 1.484 1.26 1.26 0 01-1.506.935c-1.743-.394-3.487.978-3.487 2.74 0 1.549 1.276 2.81 2.847 2.81 1.569 0 2.846-1.261 2.846-2.81 0-.159-.013-.316-.038-.467a1.244 1.244 0 011.033-1.43 1.257 1.257 0 011.446 1.022c.049.284.074.577.074.875 0 2.917-2.406 5.292-5.361 5.292-2.957 0-5.361-2.375-5.361-5.292 0-2.919 2.404-5.292 5.36-5.292zm-11.572 4.05a1.25 1.25 0 011.258 1.242 1.25 1.25 0 01-1.258 1.24H5.757a1.25 1.25 0 01-1.257-1.24 1.25 1.25 0 011.257-1.241h10.31zM9.862 4.5c2.957 0 5.361 2.373 5.361 5.292 0 2.917-2.404 5.292-5.361 5.292S4.5 12.709 4.5 9.792c0-.298.026-.59.074-.875a1.255 1.255 0 011.447-1.021 1.244 1.244 0 011.033 1.43c-.025.15-.039.307-.039.466 0 1.549 1.276 2.81 2.847 2.81 1.57 0 2.846-1.261 2.846-2.81 0-1.55-1.275-2.81-2.846-2.81-.215 0-.43.023-.634.07a1.254 1.254 0 01-1.51-.927 1.24 1.24 0 01.94-1.49A5.326 5.326 0 019.862 4.5zm21.88 4.05A1.25 1.25 0 0133 9.791a1.25 1.25 0 01-1.258 1.242H21.434a1.25 1.25 0 01-1.257-1.242 1.25 1.25 0 011.257-1.24h10.308z" fill="#446DF6"/></svg>