<svg width="36" height="36" fill="none" xmlns="http://www.w3.org/2000/svg"><path d="M24.321 3.75C29.107 3.75 33 7.732 33 12.628v10.744c0 4.896-3.893 8.878-8.679 8.878-.552 0-1-.458-1-1.023s.448-1.023 1-1.023c3.683 0 6.679-3.064 6.679-6.832v-8.575h-4.925c-1.618.002-2.936 1.35-2.938 3.006.002 1.656 1.32 3.004 2.938 3.005h2.046c.552 0 1 .459 1 1.023 0 .565-.448 1.024-1 1.024h-2.046c-2.722-.002-4.936-2.268-4.938-5.052.002-2.785 2.216-5.05 4.938-5.052H31v-.123c0-3.768-2.996-6.832-6.679-6.832H11.677c-2.968 0-5.458 2.003-6.326 4.747h13.181c.552 0 1 .458 1 1.023 0 .566-.448 1.023-1 1.023H5.004l-.004.04v10.743c0 3.768 2.995 6.832 6.677 6.832h6.362c.552 0 1 .458 1 1.023s-.448 1.023-1 1.023h-6.362C6.892 32.25 3 28.268 3 23.372V12.628C3 7.732 6.892 3.75 11.677 3.75h12.644zm2.425 12.938c.552 0 1 .458 1 1.023 0 .564-.448 1.023-1 1.023h-.454c-.553 0-1-.459-1-1.023 0-.565.447-1.023 1-1.023h.454z" fill="#446DF6"/></svg>